<svg class="svg-icon" style="width: 1em; height: 1em;vertical-align: middle;fill: currentColor;overflow: hidden;" viewBox="0 0 1024 1024" version="1.1" xmlns="http://www.w3.org/2000/svg"><path d="M512.104171 841.284232h-0.833367c-124.171719 0-112.296236-144.380875-112.296236-144.380875V378.55707s2.916785-32.709664-23.750967-32.709664c-26.876094 0-23.750966 32.709664-23.750966 32.709664V743.780264s2.708444 59.377416 45.210173 101.879146c23.750966 23.959308 60.002442 42.501729 115.421363 42.710071v-47.085249z" fill="#757575" /><path d="M512.104171 193.3412c0.208342 0 0.416684-0.208342 0.416684-0.208341 9.375381-4.58352 21.042523-7.291963 35.209766-7.291964 81.878332 0 77.294812 91.670397 77.294811 91.670397v419.183723s10.417091 143.964191-112.921261 144.589217v46.876907c153.756256-0.208342 160.631536-144.589217 160.631536-144.589216V241.676501s-5.000203-105.629298-124.796745-105.629299c-13.125534 0-24.792675 1.250051-35.209766 3.541811l-0.625025 0.208342v53.543845z" fill="#616161" /><path d="M512.104171 725.862869c-51.252085-0.625025-41.668362-75.628077-41.668362-75.628078V277.094608s-2.916785-62.08586 41.668362-83.961749V139.589013C427.100712 158.131434 422.933876 241.468159 422.933876 241.468159v431.892573s-10.208749 99.795727 89.170295 100.212411v-47.710274z" fill="#757575" /><path d="M601.274466 366.473245s4.375178-32.709664-23.750967-32.709664c-28.334486 0-23.959308 32.084639-23.959308 32.084639l0.208342 284.594913s9.583723 76.253103-41.46002 75.628078h-0.208342v47.710274h0.833367c100.212411 0 88.336928-100.212411 88.336928-100.212411V366.473245z" fill="#616161" /></svg>